<?xml version="1.0" standalone="no"?>
<!DOCTYPE svg PUBLIC "-//W3C//DTD SVG 20010904//EN"
 "http://www.w3.org/TR/2001/REC-SVG-20010904/DTD/svg10.dtd">
<svg version="1.0" xmlns="http://www.w3.org/2000/svg"
 width="1920.000000pt" height="1920.000000pt" viewBox="0 0 1920.000000 1920.000000"
 preserveAspectRatio="xMidYMid meet">

<g transform="translate(0.000000,1920.000000) scale(0.100000,-0.100000)"
fill="#000000" stroke="none">
<path d="M7520 15044 c-36 -7 -99 -30 -140 -50 -74 -36 -123 -84 -2576 -2538
-2341 -2341 -2503 -2505 -2537 -2571 -48 -95 -67 -175 -67 -285 0 -110 19
-190 67 -285 34 -65 197 -231 2526 -2562 1956 -1957 2503 -2499 2551 -2527
178 -106 399 -113 589 -19 91 46 208 160 255 250 92 175 94 381 6 563 -36 73
-78 116 -1988 2028 l-1951 1952 6119 0 c5552 0 6124 1 6180 16 203 52 378 227
430 430 9 35 16 102 16 154 0 52 -7 119 -16 154 -52 203 -227 378 -430 430
-56 15 -628 16 -6180 16 l-6119 0 1951 1953 c1910 1911 1952 1954 1988 2027
88 182 86 388 -6 563 -42 81 -164 203 -245 245 -126 66 -281 87 -423 56z"/>
</g>
</svg>
